<svg height="512" viewBox="0 0 64 64" width="512" xmlns="http://www.w3.org/2000/svg"><g id="main"><g fill="#f4cf5d"><path d="m26 18h-19a1 1 0 0 1 0-2h19a1 1 0 0 1 0 2z"/><path d="m17.82227 26h-15.82227a1 1 0 0 1 0-2h15.82227a1 1 0 1 1 0 2z"/><path d="m14 34h-8a1 1 0 0 1 0-2h8a1 1 0 0 1 0 2z"/><path d="m14.186 42h-12.186a1 1 0 0 1 0-2h12.186a1 1 0 0 1 0 2z"/><path d="m17.186 51h-7.186a1 1 0 0 1 0-2h7.186a1 1 0 0 1 0 2z"/></g><rect fill="#546c8c" height="8" rx="1" width="8" x="34" y="7"/><circle cx="38" cy="38" fill="#37caec" r="25"/><path d="m38.70508 17a21.69423 21.69423 0 0 0 -21.64356 21.69434 20.08135 20.08135 0 0 0 20.2334 20.30566 21.69486 21.69486 0 0 0 21.64356-21.69434 20.08145 20.08145 0 0 0 -20.2334-20.30566z" fill="#eff3fe"/><rect fill="#37caec" height="8" rx="3" width="18" x="29" y="1"/><path d="m35.96289 46.08984-1.81055-7.62793a.99955.99955 0 0 0 -.97265-.76953h-2.68408a1.00053 1.00053 0 0 0 -.97315.76953l-1.81055 7.62793a4.18819 4.18819 0 1 0 8.251 0z" fill="#6295d3"/><path d="m31.8374 28c-2.62109 0-4.23047 4.11035-4.23047 7.05762 0 2.90234 1.58155 4.63476 4.23047 4.63476s4.231-1.73242 4.231-4.63476c-.00004-2.94727-1.6094-7.05762-4.231-7.05762z" fill="#80b4fb"/><path d="m48.88574 46.08984-1.81054-7.62793a.99957.99957 0 0 0 -.97266-.76953h-2.68354a.99956.99956 0 0 0 -.97266.76953l-1.81055 7.62793a4.18778 4.18778 0 1 0 8.25 0z" fill="#6295d3"/><path d="m44.76074 39.69238a4.34165 4.34165 0 0 1 -4.23047-4.43554v-6.25684a1 1 0 0 1 2 0v6.25684a2.2391 2.2391 0 1 0 4.46094 0v-6.25684a1 1 0 1 1 2 0v6.25684a4.34165 4.34165 0 0 1 -4.23047 4.43554z" fill="#80b4fb"/></g></svg>