<svg id="Calque_1" data-name="Calque 1" xmlns="http://www.w3.org/2000/svg" viewBox="0 0 277.38085 171.65884"><defs><style>.cls-1{fill:#707070;}.cls-2{fill:#3b3b3b;}.cls-3{fill:#f3e14f;}</style></defs><rect class="cls-1" width="138.73812" height="171.65884"/><rect class="cls-2" x="138.73812" width="138.64273" height="171.65884"/><path class="cls-3" d="M926.06055,411.6416q-4.23633,0-6.44141-2.207-2.209-2.20605-2.207-6.44141V356.77881q0-4.23341,2.207-6.44092,2.20605-2.20679,6.44141-2.207h30.6289a6.50608,6.50608,0,0,1,4.7295,1.62158,6.244,6.244,0,0,1,1.666,4.68408,6.52712,6.52712,0,0,1-1.666,4.81983,6.39741,6.39741,0,0,1-4.7295,1.6665H933.17676v12.07178h21.44043a6.73883,6.73883,0,0,1,4.77441,11.12549,6.36392,6.36392,0,0,1-4.77441,1.667H933.17676v13.0625h23.51269a6.73512,6.73512,0,0,1,4.7295,11.1709,6.50589,6.50589,0,0,1-4.7295,1.62109Z" transform="translate(-891.89622 -293.59417)"/><path class="cls-3" d="M974.707,412.542a7.8558,7.8558,0,0,1-4.68457-1.35058,5.6684,5.6684,0,0,1-2.3418-3.64844,8.719,8.719,0,0,1,.81055-5.18067l22.43164-48.28613a12.68779,12.68779,0,0,1,3.96387-5.17969,9.23122,9.23122,0,0,1,5.49512-1.6665,8.88955,8.88955,0,0,1,5.35937,1.6665,12.88577,12.88577,0,0,1,3.91895,5.17969l22.52148,48.28613a8.79383,8.79383,0,0,1,.94629,5.22559,5.46717,5.46717,0,0,1-2.207,3.64844,7.64235,7.64235,0,0,1-4.59473,1.30566,7.99693,7.99693,0,0,1-5.40527-1.71094,14.31266,14.31266,0,0,1-3.51367-5.31543L1012.543,394.165l6.39648,4.68457H981.7334L988.04,394.165l-4.86524,11.35058a16.17685,16.17685,0,0,1-3.24316,5.36036Q978.21924,412.54151,974.707,412.542Zm25.49414-47.11474L989.751,390.38086l-2.52246-4.32422h26.21582l-2.61329,4.32422-10.44921-24.95361Z" transform="translate(-891.89622 -293.59417)"/><path class="cls-3" d="M1063.35156,412.72266a54.72547,54.72547,0,0,1-7.56738-.541,56.77725,56.77725,0,0,1-7.43164-1.53125,37.961,37.961,0,0,1-6.35156-2.3418,7.05524,7.05524,0,0,1-3.42286-3.15332,6.98212,6.98212,0,0,1-.7207-4.09863,7.79272,7.79272,0,0,1,1.53125-3.78418,6.17112,6.17112,0,0,1,3.333-2.252,6.82627,6.82627,0,0,1,4.68457.58594,36.10626,36.10626,0,0,0,7.74707,2.56738,38.39537,38.39537,0,0,0,8.19824.94629q5.855,0,8.24317-1.667a4.76166,4.76166,0,0,0,2.38672-3.91894,3.98133,3.98133,0,0,0-1.666-3.333,15.80783,15.80783,0,0,0-5.90137-2.16211l-10.54-2.252q-8.73779-1.89258-12.92675-6.35156-4.18945-4.459-4.18946-11.57617a18.15383,18.15383,0,0,1,1.98242-8.55811,19.55906,19.55906,0,0,1,5.49512-6.48584,26.66393,26.66393,0,0,1,8.46777-4.23438,36.79387,36.79387,0,0,1,10.9004-1.53125,43.33345,43.33345,0,0,1,9.5039,1.08106,28.68961,28.68961,0,0,1,8.333,3.15283,6.67742,6.67742,0,0,1,3.01855,3.01807,6.99862,6.99862,0,0,1,.71973,3.91845,6.76508,6.76508,0,0,1-1.44043,3.51368,5.75029,5.75029,0,0,1-3.24316,2.02685,7.78331,7.78331,0,0,1-4.82032-.67578,28.77689,28.77689,0,0,0-5.94531-1.80176,33.09156,33.09156,0,0,0-6.30566-.63037,17.45142,17.45142,0,0,0-5.67578.81055,7.92112,7.92112,0,0,0-3.5586,2.252,5.01834,5.01834,0,0,0-1.21582,3.3335,3.96521,3.96521,0,0,0,1.6211,3.19775q1.62157,1.30737,5.76562,2.11719l10.4502,2.252q8.73633,1.89184,13.0625,6.26123a15.38608,15.38608,0,0,1,4.32422,11.30567,18.39643,18.39643,0,0,1-1.89161,8.42383,19.00006,19.00006,0,0,1-5.45019,6.48535,25.38354,25.38354,0,0,1-8.46875,4.18945A39.18515,39.18515,0,0,1,1063.35156,412.72266Z" transform="translate(-891.89622 -293.59417)"/><path class="cls-3" d="M1119.92383,412.542a8.21793,8.21793,0,0,1-6.21582-2.252,8.86283,8.86283,0,0,1-2.16211-6.39551V379.12012l3.42285,9.18945-20.71973-29.729a7.56109,7.56109,0,0,1-1.30566-4.90967,7.18986,7.18986,0,0,1,2.11719-4.5044,7.46846,7.46846,0,0,1,5.585-1.93652,8.67623,8.67623,0,0,1,4.59472,1.26123,12.42863,12.42863,0,0,1,3.873,4.144l12.61231,18.55762h-3.333l12.70215-18.648a13.15371,13.15371,0,0,1,3.873-4.09863,8.77454,8.77454,0,0,1,4.68457-1.21631,7.51746,7.51746,0,0,1,5.31543,1.75684,6.18168,6.18168,0,0,1,2.02637,4.36914,8.71671,8.71671,0,0,1-1.666,5.31494l-20.54,29.63867,3.334-9.18945v24.77441Q1128.12207,412.543,1119.92383,412.542Z" transform="translate(-891.89622 -293.59417)"/></svg>