<svg id="Capa_1" enable-background="new 0 0 512 512" height="512" viewBox="0 0 512 512" width="512" xmlns="http://www.w3.org/2000/svg"><g><g><g><g><g><g><circle cx="256" cy="256" fill="#00c8c8" r="256"/></g></g></g></g></g><path d="m512 256c0-10.23-.6-20.321-1.767-30.237l-88.749-88.75-320.125 249.902 123.169 123.169c10.314 1.265 20.817 1.916 31.472 1.916 141.385 0 256-114.615 256-256z" fill="#00a0aa"/><g><path d="m90.516 137.013h330.967v193.585h-330.967z" fill="#fc9942"/></g><g><path d="m256 137.013h165.484v193.585h-165.484z" fill="#fa732d"/></g><g><path d="m377.38 402.074h-242.76c-24.358 0-44.103-19.746-44.103-44.103v-236.045h95.638l63.457 40.769h171.873v195.275c-.001 24.358-19.747 44.104-44.105 44.104z" fill="#ffce00"/></g><g><path d="m256 162.695v239.379h121.38c24.358 0 44.103-19.746 44.103-44.104v-195.275z" fill="#ffb600"/></g><g><path d="m375.15 262.962c-1.894-9.227-5.526-17.821-10.538-25.424l9.696-9.696-20.912-20.912-9.696 9.696c-7.603-5.012-16.197-8.643-25.424-10.537v-13.705h-29.574v13.705c-9.227 1.894-17.821 5.526-25.424 10.538l-9.696-9.696-20.912 20.912 9.696 9.696c-5.012 7.603-8.643 16.197-10.537 25.424h-13.705v29.574h13.705c1.894 9.227 5.526 17.821 10.538 25.424l-9.696 9.696 20.912 20.912 9.696-9.696c7.603 5.012 16.197 8.643 25.424 10.537v13.705h29.574v-13.705c9.227-1.894 17.821-5.525 25.424-10.537l9.696 9.696 20.912-20.912-9.696-9.696c5.012-7.603 8.644-16.197 10.538-25.424h13.705v-29.574h-13.706zm-71.661 50.435c-19.688 0-35.648-15.96-35.648-35.648s15.96-35.648 35.648-35.648 35.648 15.96 35.648 35.648-15.96 35.648-35.648 35.648z" fill="#636978"/></g><g><path d="m375.15 262.962c-1.894-9.228-5.526-17.821-10.537-25.424l9.696-9.696-20.912-20.912-9.696 9.696c-7.603-5.012-16.197-8.643-25.424-10.537v-13.705h-15.003v49.723c.072 0 .144-.005.216-.005 19.688 0 35.648 15.96 35.648 35.648s-15.96 35.648-35.648 35.648c-.073 0-.144-.005-.216-.006v49.724h15.003v-13.706c9.227-1.894 17.821-5.525 25.424-10.538l9.696 9.696 20.912-20.912-9.696-9.696c5.012-7.603 8.644-16.197 10.538-25.424h13.705v-29.574z" fill="#414952"/></g></g></svg>