<svg id="Capa_1" enable-background="new 0 0 512 512" height="512" viewBox="0 0 512 512" width="512" xmlns="http://www.w3.org/2000/svg"><g><g><g><g><g><g><g><circle cx="256" cy="256" fill="#ffce00" r="256"/></g></g></g></g></g></g><path d="m512 256c0-12.284-.866-24.367-2.539-36.189l-74.461-74.462-358 221.302 142.811 142.811c11.822 1.672 23.905 2.538 36.189 2.538 141.385 0 256-114.615 256-256z" fill="#ffa300"/><g><path d="m77 145.349h358v221.302h-358z" fill="#00c8c8"/></g><g><path d="m256 145.349h179v221.302h-179z" fill="#00a0aa"/></g><g fill="#fff"><path d="m108.492 296.253v-79.253h60.123v20.912h-36.122v7.842h35.29v20.912h-35.29v8.674h36.122v20.912h-60.123z"/><path d="m232.181 296.253-2.852-9.268h-28.517l-2.852 9.268h-27.21l29.23-79.253h30.181l29.229 79.253zm-17.11-55.727-7.842 25.546h15.685z"/><path d="m257.604 285.084 12.477-17.823c5.94 5.704 14.853 10.219 25.546 10.219 4.516 0 8.793-1.189 8.793-4.278 0-7.604-44.201.119-44.201-31.131 0-13.427 11.169-26.259 32.913-26.259 12.951 0 24.596 3.684 33.626 11.05l-12.833 16.991c-6.891-5.228-15.803-7.842-23.288-7.842-4.753 0-6.06 1.544-6.06 3.564 0 7.486 44.082 1.069 44.082 30.537 0 17.467-12.951 27.566-34.221 27.566-16.872.001-28.397-4.989-36.834-12.594z"/><path d="m356.461 296.253v-31.487l-29.705-47.766h26.972l14.734 26.734 14.496-26.734h26.972l-29.467 47.766v31.487z"/></g></g></svg>