<svg id="Calque_1" data-name="Calque 1" xmlns="http://www.w3.org/2000/svg" viewBox="0 0 248.47009 210.07019"><defs><style>.cls-1{fill:#f3e14f;}.cls-2{fill:#efd81d;}.cls-3{fill:#f0d922;}.cls-4{fill:#e1ca10;}.cls-5{fill:#707070;}.cls-6{fill:#3b3b3b;}</style></defs><path class="cls-1" d="M665.05912,289.12l-44.29-28.67718-3.01545-1.9H546.07817V435.69538a32.91762,32.91762,0,0,0,32.9176,32.9176h91.31744V289.12Z" transform="translate(-546.07817 -258.54279)"/><path class="cls-2" d="M794.54826,435.69538V289.12h-124.235V468.613h91.31751A32.91757,32.91757,0,0,0,794.54826,435.69538Z" transform="translate(-546.07817 -258.54279)"/><polygon class="cls-3" points="89.6 11.294 89.2 11.294 118.981 30.577 124.235 30.577 124.235 11.294 89.6 11.294"/><rect class="cls-4" x="124.23505" y="11.29413" width="124.23505" height="19.28308"/><rect class="cls-5" x="143.69008" y="136.76752" width="42.67716" height="52.80389"/><rect class="cls-6" x="186.36724" y="136.76752" width="42.64782" height="52.80389"/><path class="cls-1" d="M705.418,431.62305a2.38108,2.38108,0,0,1-2.66016-2.66016V414.74707a2.38108,2.38108,0,0,1,2.66016-2.66016h5.4043q5.09764,0,7.88378,2.54883a9.277,9.277,0,0,1,2.78418,7.20508,11.34115,11.34115,0,0,1-.70605,4.15723,8.21,8.21,0,0,1-2.06445,3.06152,8.91109,8.91109,0,0,1-3.33985,1.91211,14.57413,14.57413,0,0,1-4.55761.65137Zm2.43848-4.12891h2.66015a7.95554,7.95554,0,0,0,2.53613-.36035,4.57962,4.57962,0,0,0,1.77344-1.05274,4.27051,4.27051,0,0,0,1.05274-1.74609,7.99451,7.99451,0,0,0,.34668-2.49414,5.69945,5.69945,0,0,0-1.41309-4.23926,5.91543,5.91543,0,0,0-4.2959-1.38574h-2.66015Z" transform="translate(-546.07817 -258.54279)"/><path class="cls-1" d="M733.96094,431.95605a10.28527,10.28527,0,0,1-5.19629-1.27539,9.07774,9.07774,0,0,1-3.49121-3.54687,10.72923,10.72923,0,0,1-1.26074-5.293,11.4834,11.4834,0,0,1,.707-4.14258,8.82579,8.82579,0,0,1,2.03613-3.15918,9.45409,9.45409,0,0,1,3.15918-2.05078,10.77164,10.77164,0,0,1,4.0459-.73437,10.46912,10.46912,0,0,1,5.21,1.26074,8.80287,8.80287,0,0,1,3.47754,3.51953,10.91564,10.91564,0,0,1,1.2334,5.30664,11.50915,11.50915,0,0,1-.707,4.12891,9.04547,9.04547,0,0,1-2.02246,3.1875,9.1826,9.1826,0,0,1-3.1455,2.06445A10.77526,10.77526,0,0,1,733.96094,431.95605Zm0-4.29589a4.35182,4.35182,0,0,0,2.49414-.69239,4.41537,4.41537,0,0,0,1.5791-1.99511,7.96564,7.96564,0,0,0,.55469-3.13184,6.67573,6.67573,0,0,0-1.21973-4.25391,4.10517,4.10517,0,0,0-3.4082-1.53711,4.43061,4.43061,0,0,0-2.48047.67872A4.3788,4.3788,0,0,0,729.874,418.71a7.80047,7.80047,0,0,0-.56836,3.13086,6.61709,6.61709,0,0,0,1.24707,4.28125A4.15043,4.15043,0,0,0,733.96094,427.66016Z" transform="translate(-546.07817 -258.54279)"/><path class="cls-1" d="M756.794,431.95605a11.53306,11.53306,0,0,1-5.56934-1.26171,8.83334,8.83334,0,0,1-3.58887-3.51856,10.77089,10.77089,0,0,1-1.26074-5.335,11.4834,11.4834,0,0,1,.707-4.14258,8.636,8.636,0,0,1,2.06445-3.15918,9.53273,9.53273,0,0,1,3.28321-2.05078,12.549,12.549,0,0,1,6.9834-.42969,9.772,9.772,0,0,1,2.4248.85938,2.27984,2.27984,0,0,1,1.09473,1.06738,2.38269,2.38269,0,0,1,.19336,1.33008,2.5392,2.5392,0,0,1-.48438,1.19141,1.97248,1.97248,0,0,1-.99805.70605,1.74563,1.74563,0,0,1-1.35742-.19336,6.59094,6.59094,0,0,0-1.63476-.5957,8.10075,8.10075,0,0,0-1.71875-.18067,5.6921,5.6921,0,0,0-2.83985.65137,4.1316,4.1316,0,0,0-1.73242,1.88477,7.16087,7.16087,0,0,0-.582,3.06152,7.25551,7.25551,0,0,0,.582,3.07617,4.12117,4.12117,0,0,0,1.73242,1.89844,5.6921,5.6921,0,0,0,2.83985.65137,7.95254,7.95254,0,0,0,1.59375-.167,6.85028,6.85028,0,0,0,1.62109-.55371,2.30362,2.30362,0,0,1,1.46875-.208,1.829,1.829,0,0,1,1.06641.665,2.55033,2.55033,0,0,1,.51269,1.16407,2.15965,2.15965,0,0,1-.17969,1.28808,2.207,2.207,0,0,1-1.01171,1.02539,8.61868,8.61868,0,0,1-2.39649.92872A11.93046,11.93046,0,0,1,756.794,431.95605Z" transform="translate(-546.07817 -258.54279)"/></svg>