<svg id="Calque_1" data-name="Calque 1" xmlns="http://www.w3.org/2000/svg" viewBox="0 0 236.67533 234.46884"><defs><style>.cls-1{fill:#f3e14f;}.cls-2{fill:#f1dc31;}.cls-3{fill:#efd81d;}.cls-4{fill:#e1ca10;}.cls-5{fill:#f9f0a9;}.cls-6{fill:#f6e97c;}.cls-7{fill:#3b3b3b;}</style></defs><rect class="cls-1" x="127.07022" y="16.1651" width="15.53833" height="42.04254"/><rect class="cls-2" x="142.60855" y="16.1651" width="15.58502" height="42.04254"/><path class="cls-3" d="M323.07037,231.02136a11.81346,11.81346,0,0,0-11.81347,11.81348v7.4964a11.81346,11.81346,0,0,0,11.81347,11.81347h22.83722V231.02136Z" transform="translate(-203.29904 -231.02136)"/><path class="cls-4" d="M380.98877,250.33124v-7.4964a11.81346,11.81346,0,0,0-11.81348-11.81348h-23.2677v31.12335h23.2677A11.81346,11.81346,0,0,0,380.98877,250.33124Z" transform="translate(-203.29904 -231.02136)"/><rect class="cls-3" x="252.73547" y="254.36532" width="7.51669" height="84.76077" rx="3.29569" transform="translate(-243.55093 322.21817) rotate(-90)"/><rect class="cls-3" x="234.31231" y="292.41793" width="7.51669" height="69.54324" rx="3.29569" transform="translate(-292.41793 334.23885) rotate(-90)"/><rect class="cls-3" x="234.31231" y="336.29116" width="7.51669" height="43.35323" rx="3.29569" transform="translate(-323.19615 365.01706) rotate(-90)"/><rect class="cls-3" x="228.25735" y="362.49341" width="7.51669" height="57.43331" rx="3.29569" transform="translate(-362.49341 392.20439) rotate(-90)"/><rect class="cls-3" x="250.67621" y="405.01475" width="7.51669" height="38.10279" rx="3.29569" transform="translate(-372.93062 447.47934) rotate(-90)"/><path class="cls-1" d="M251.84082,371.42343a94.06675,94.06675,0,0,0,94.06677,94.06677V277.3566A94.0668,94.0668,0,0,0,251.84082,371.42343Z" transform="translate(-203.29904 -231.02136)"/><path class="cls-3" d="M439.97437,371.42343a94.06681,94.06681,0,0,0-94.06678-94.06683V465.4902A94.06676,94.06676,0,0,0,439.97437,371.42343Z" transform="translate(-203.29904 -231.02136)"/><path class="cls-5" d="M264.45282,371.42343a81.4548,81.4548,0,0,0,81.45477,81.45477V289.96866A81.45476,81.45476,0,0,0,264.45282,371.42343Z" transform="translate(-203.29904 -231.02136)"/><path class="cls-6" d="M427.36237,371.42343a81.45476,81.45476,0,0,0-81.45478-81.45477V452.8782A81.4548,81.4548,0,0,0,427.36237,371.42343Z" transform="translate(-203.29904 -231.02136)"/><path class="cls-7" d="M305.20789,403.832a3.2362,3.2362,0,0,0-.054,4.57459l8.76984,8.98638a3.23623,3.23623,0,0,0,4.72076-.09454l27.26312-30.27148V364.05127Z" transform="translate(-203.29904 -231.02136)"/><polygon class="cls-7" points="151.03 124.798 142.609 133.03 142.609 156.006 161.151 135.417 151.03 124.798"/><path class="cls-7" d="M337.68231,331.928a1.71265,1.71265,0,0,0-.954,2.36426,2.55232,2.55232,0,0,0,1.89734,1.4552c2.75189.50506,5.15534,1.05059,7.28192,1.62353v-7.6673A26.73969,26.73969,0,0,0,337.68231,331.928Z" transform="translate(-203.29904 -231.02136)"/><path class="cls-7" d="M357.97968,352.42572a2.63788,2.63788,0,0,0,.15942,3.63709l6.84045,6.55548a2.62065,2.62065,0,0,0,3.46112.16137c6.03791-4.91882,10.12513-.39013,11.27491,1.179a2.67857,2.67857,0,0,1,.47284,1.07538,3.99161,3.99161,0,0,1-.47413,3.17413,2.27293,2.27293,0,0,0-.4273,2.11871,2.54071,2.54071,0,0,0,.60083,1.0636l3.48889,3.76252a2.63508,2.63508,0,0,0,3.803.064l9.78717-9.86676a2.63431,2.63431,0,0,0-.04944-3.76c-1.2345-1.1795-2.722-2.58008-3.37683-3.11578a1.9527,1.9527,0,0,0-1.99835-.43567,2.46875,2.46875,0,0,1-.60334.15753,8.45123,8.45123,0,0,1-4.8092-.71735c-2.10162-1.21673-1.54858-4.86688-1.54858-6.74725a4.52159,4.52159,0,0,0-.553-2.59936c-13.25849-17.9668-28.76819-19.64075-38.12049-18.42872v7.6673C363.98932,342.24225,360.76434,349.21729,357.97968,352.42572Z" transform="translate(-203.29904 -231.02136)"/></svg>